<svg xmlns:svg="http://www.w3.org/2000/svg" xmlns="http://www.w3.org/2000/svg" version="1.1" xml:space="preserve" width="133.3" height="133.3" viewBox="0 0 133.3 133.3"><style>.s0{fill:none;stroke-linecap:round;stroke-linejoin:round;stroke-width:2;stroke:#3a7cbf;}.s1{fill:#3a7cbf;}</style><defs><clipPath clipPathUnits="userSpaceOnUse"><path d="M0 100H100V0H0Z"/></clipPath></defs><g transform="matrix(1.3333333,0,0,-1.3333333,0,133.33333)"><g clip-path="url(#clipPath18)"><g transform="translate(78.043,27.9707)"><path d="m0 0c5.6-0.7 11.1-1.6 16.6-2.9-1.1 2.6-2.9 7.1-3.6 9-0.2 0.5-0.1 1 0.3 1.4 1.5 1.5 5.4 5.3 7.2 6.9-2.9 0.6-5.8 1.2-8.7 1.7" class="s0"/></g><g transform="translate(9.6846,44.1016)"><path d="m0 0c-2.9-0.5-5.8-1.1-8.8-1.7 1.8-1.6 5.7-5.4 7.2-6.9 0.4-0.4 0.5-0.9 0.3-1.4-0.7-1.8-2.5-6.4-3.6-9 5.5 1.2 11 2.2 16.6 2.9" class="s0"/></g><g transform="translate(84.5352,37.1768)"><path d="m0 0-6.6-2.3c-0.7-0.3-1.2-1-1-1.8l1.3-7.1c0.2-1-0.7-2-1.7-1.9l-7.2 0.6c-0.8 0.1-1.5-0.5-1.7-1.2l-1.7-7c-0.2-1-1.4-1.5-2.3-1l-6.3 3.4c-0.7 0.4-1.6 0.2-2-0.4l-4.4-5.7c-0.6-0.8-1.9-0.8-2.6 0l-4.4 5.7c-0.5 0.6-1.4 0.8-2 0.4l-6.3-3.4c-0.9-0.5-2.1 0-2.3 1l-1.7 7c-0.2 0.8-0.9 1.3-1.7 1.2l-7.2-0.6c-1.1-0.1-1.9 0.9-1.7 1.9l1.3 7.1c0.1 0.8-0.3 1.6-1 1.8l-6.6 2.3" class="s0"/></g><g transform="translate(12.7695,55.1475)"><path d="m0 0 6.1 3.7c0.7 0.4 1 1.3 0.6 2l-2.8 6.6c-0.4 1 0.2 2.1 1.3 2.2l7.1 0.9c0.8 0.1 1.4 0.8 1.4 1.6l0.2 7.2c0 1.1 1.1 1.8 2.1 1.5l6.9-2c0.8-0.2 1.6 0.1 1.9 0.9l3.1 6.5c0.5 1 1.7 1.2 2.5 0.5l5.4-4.7c0.6-0.5 1.5-0.5 2.1 0l5.5 4.7c0.8 0.7 2 0.4 2.5-0.5l3.1-6.5c0.3-0.7 1.2-1.1 1.9-0.9l6.9 2c1 0.3 2-0.4 2.1-1.5l0.2-7.2c0-0.8 0.6-1.5 1.4-1.6l7.1-0.9c1.1-0.1 1.7-1.2 1.3-2.2L67.1 5.7C66.8 5 67.1 4.2 67.7 3.7L73.9 0" class="s0"/></g><g transform="translate(74.9531,38.9141)"><path d="m0 0c-4.2-9.8-13.9-16.7-25.3-16.7-11.3 0-21.1 6.9-25.2 16.7" class="s0"/></g><g transform="translate(23.1982,56.6274)"><path d="m0 0c3.1 11.7 13.8 20.4 26.5 20.4 12.6 0 23.3-8.6 26.4-20.2" class="s0"/></g><g transform="translate(87.8301,36.5254)"><path d="m0 0c-25.1 5.6-51.2 5.6-76.3 0-1.3 5.8-2.6 11.5-3.9 17.3 27.7 6.2 56.3 6.2 84 0C2.6 11.5 1.3 5.8 0 0Z" class="s0"/></g><g transform="translate(26.748,44.3975)"><path d="m0 0c0 0 0-0.1 0-0.1 0 0-0.1-0.1-0.1-0.1-0.1 0-0.1 0-0.2-0.1-0.1 0-0.2 0-0.3 0-0.1 0-0.2 0-0.3 0-0.1 0-0.2 0-0.2 0-0.1 0-0.1 0-0.1 0.1 0 0 0 0.1 0 0.1C-1.6 1.8-1.7 3.8-1.9 5.8-1.9 5.8-1.9 5.8-1.9 5.8-2.5 3.7-3 1.7-3.5-0.3-3.5-0.4-3.5-0.4-3.6-0.4-3.6-0.5-3.6-0.5-3.7-0.5-3.8-0.5-3.8-0.6-3.9-0.6-4-0.6-4.1-0.6-4.2-0.6-4.4-0.6-4.5-0.6-4.6-0.6c-0.1 0-0.2 0-0.2 0-0.1 0-0.1 0-0.1 0.1 0 0-0.1 0.1-0.1 0.1-0.9 1.9-1.7 3.8-2.6 5.7 0 0 0 0 0 0 0.2-2 0.4-3.9 0.6-5.9 0 0 0-0.1 0-0.1 0 0-0.1-0.1-0.1-0.1-0.1 0-0.1 0-0.2-0.1-0.1 0-0.2 0-0.3-0.1-0.1 0-0.2 0-0.3 0-0.1 0-0.2 0-0.2 0-0.1 0-0.1 0-0.1 0.1 0 0 0 0.1 0 0.1l-0.7 6.4c0 0.2 0 0.3 0.1 0.5 0.1 0.1 0.2 0.2 0.4 0.2 0.3 0 0.7 0.1 1 0.1 0.2 0 0.3 0 0.5 0 0.1 0 0.2 0 0.3-0.1 0.1-0.1 0.2-0.1 0.3-0.2 0.1-0.1 0.1-0.2 0.2-0.4 0.7-1.4 1.3-2.8 2-4.1 0 0 0 0 0 0 0.4 1.5 0.8 3 1.2 4.4 0 0.2 0.1 0.3 0.1 0.4 0 0.1 0.1 0.2 0.2 0.3 0.1 0.1 0.2 0.1 0.3 0.2 0.1 0 0.2 0.1 0.4 0.1 0.3 0 0.7 0.1 1 0.1 0.1 0 0.2 0 0.3 0 0.1 0 0.1-0.1 0.2-0.1 0.1 0 0.1-0.1 0.1-0.2 0-0.1 0.1-0.2 0.1-0.2C-0.3 4.3-0.2 2.1 0 0" fill="#3a7cbf"/></g><g transform="translate(33.1064,48.2822)"><path d="M0 0C0 0.4-0.1 0.7-0.2 1-0.2 1.3-0.4 1.6-0.5 1.8-0.7 2-0.9 2.2-1.1 2.3-1.4 2.4-1.7 2.4-2.1 2.4-2.4 2.4-2.7 2.3-3 2.1-3.2 2-3.4 1.8-3.5 1.6-3.7 1.3-3.8 1.1-3.8 0.7-3.8 0.4-3.8 0.1-3.8-0.2c0-0.4 0.1-0.7 0.2-1.1 0.1-0.3 0.2-0.6 0.4-0.8 0.2-0.2 0.4-0.4 0.6-0.5 0.2-0.1 0.6-0.1 0.9-0.1 0.4 0 0.7 0.1 0.9 0.3 0.2 0.1 0.4 0.3 0.6 0.6 0.1 0.2 0.2 0.5 0.3 0.8C0-0.7 0-0.3 0 0M1.6 0.2C1.6-0.4 1.5-1 1.4-1.5 1.3-1.9 1.1-2.4 0.8-2.7 0.5-3 0.2-3.3-0.2-3.5c-0.4-0.2-0.9-0.3-1.5-0.4-0.6 0-1.1 0-1.5 0.1-0.4 0.1-0.8 0.3-1.1 0.6-0.3 0.3-0.5 0.6-0.7 1.1-0.2 0.5-0.3 1-0.3 1.6 0 0.6 0 1.1 0.1 1.6 0.1 0.5 0.3 0.9 0.6 1.2 0.3 0.3 0.6 0.6 1.1 0.8 0.4 0.2 0.9 0.3 1.5 0.4C-1.5 3.7-1 3.6-0.6 3.5-0.1 3.4 0.2 3.2 0.5 2.9 0.8 2.6 1.1 2.2 1.3 1.8 1.4 1.3 1.5 0.8 1.6 0.2" fill="#3a7cbf"/></g><g transform="translate(42.0791,45.5615)"><path d="m0 0c0-0.1 0-0.2 0-0.2 0-0.1-0.1-0.1-0.1-0.2 0 0-0.1-0.1-0.2-0.1-0.1 0-0.1 0-0.2 0-0.2 0-0.4 0-0.6 0-0.1 0-0.2 0-0.3 0-0.1 0-0.2 0.1-0.3 0.1-0.1 0.1-0.2 0.2-0.2 0.3-0.1 0.1-0.2 0.3-0.3 0.4-0.6 1.1-1.3 2.2-2 3.3-0.1 0.2-0.2 0.4-0.4 0.6-0.1 0.2-0.2 0.5-0.3 0.7 0 0 0 0 0 0 0-0.3 0.1-0.5 0.1-0.8 0-0.3 0-0.5 0-0.8 0.1-1.3 0.1-2.5 0.2-3.8 0 0 0-0.1 0-0.1 0 0-0.1-0.1-0.1-0.1 0 0-0.1 0-0.2-0.1-0.1 0-0.2 0-0.3 0-0.1 0-0.2 0-0.3 0-0.1 0-0.2 0-0.2 0 0 0-0.1 0-0.1 0.1 0 0 0 0.1 0 0.1-0.1 2.2-0.2 4.3-0.3 6.5 0 0.2 0 0.3 0.1 0.4 0.1 0.1 0.2 0.1 0.4 0.2 0.3 0 0.5 0 0.8 0 0.1 0 0.3 0 0.4 0 0.1 0 0.2-0.1 0.3-0.1 0.1-0.1 0.2-0.1 0.2-0.2 0.1-0.1 0.1-0.2 0.2-0.4 0.5-0.9 1-1.7 1.5-2.6 0.1-0.2 0.2-0.3 0.3-0.5 0.1-0.2 0.2-0.3 0.3-0.5 0.1-0.2 0.2-0.3 0.2-0.4 0.1-0.1 0.2-0.3 0.2-0.4 0 0 0 0 0 0 0 0.3 0 0.5-0.1 0.8 0 0.3 0 0.6 0 0.8 0 1.1-0.1 2.3-0.1 3.4 0 0 0 0.1 0 0.1 0 0 0.1 0.1 0.1 0.1 0.1 0 0.1 0 0.2 0.1 0.1 0 0.2 0 0.3 0 0.1 0 0.2 0 0.3 0 0.1 0 0.2 0 0.2 0 0 0 0.1 0 0.1-0.1 0 0 0-0.1 0-0.1C-0.1 4.3-0.1 2.2 0 0" fill="#3a7cbf"/></g><g transform="translate(47.9766,45.7383)"><path d="m0 0c0-0.1 0-0.2 0-0.3 0-0.1 0-0.1 0-0.2 0 0 0-0.1-0.1-0.1 0 0-0.1 0-0.1 0-1.2 0-2.4 0-3.6-0.1-0.1 0-0.2 0-0.3 0.1-0.1 0.1-0.1 0.2-0.1 0.4 0 2.1-0.1 4.2-0.2 6.3 0 0.2 0 0.3 0.1 0.4 0.1 0.1 0.2 0.1 0.3 0.1 1.2 0 2.5 0 3.7 0.1 0 0 0.1 0 0.1 0 0 0 0.1-0.1 0.1-0.1C-0.1 6.5-0.1 6.4-0.1 6.4-0.1 6.3-0.1 6.2-0.1 6.1-0.1 6-0.1 5.9-0.1 5.8-0.1 5.8-0.1 5.7-0.1 5.6-0.2 5.6-0.2 5.6-0.2 5.5-0.2 5.5-0.3 5.5-0.3 5.5-1.2 5.5-2.1 5.5-2.9 5.5c0-0.6 0-1.2 0-1.8 0.7 0 1.5 0 2.2 0 0 0 0.1 0 0.1 0 0 0 0.1-0.1 0.1-0.1C-0.5 3.6-0.5 3.5-0.5 3.4-0.5 3.4-0.5 3.3-0.5 3.2-0.5 3.1-0.5 3-0.5 2.9-0.5 2.8-0.5 2.8-0.5 2.7-0.5 2.7-0.5 2.7-0.6 2.6-0.6 2.6-0.6 2.6-0.7 2.6-1.4 2.6-2.2 2.6-2.9 2.6-2.9 1.9-2.9 1.2-2.9 0.5-2 0.6-1.1 0.6-0.2 0.6-0.2 0.6-0.2 0.6-0.1 0.5-0.1 0.5-0.1 0.5-0.1 0.4 0 0.4 0 0.3 0 0.3 0 0.2 0 0.1 0 0" fill="#3a7cbf"/></g><g transform="translate(52.2344,47.9219)"><path d="m0 0c0-0.8 0-1.7 0-2.5 0 0 0-0.1 0-0.1 0 0-0.1-0.1-0.1-0.1-0.1 0-0.1 0-0.2 0-0.1 0-0.2 0-0.4 0-0.1 0-0.3 0-0.4 0-0.1 0-0.2 0-0.2 0-0.1 0-0.1 0-0.1 0.1 0 0 0 0.1 0 0.1 0 0.9 0 1.7 0 2.5-0.7 1.3-1.3 2.6-2 3.9-0.1 0.1-0.1 0.2-0.1 0.3 0 0.1 0 0.1 0 0.2 0 0 0.1 0.1 0.2 0.1 0.1 0 0.3 0 0.5 0 0.2 0 0.3 0 0.4 0 0.1 0 0.2 0 0.3 0 0.1 0 0.1 0 0.1-0.1 0 0 0.1-0.1 0.1-0.1 0.3-0.6 0.6-1.2 0.8-1.8 0.1-0.2 0.2-0.4 0.2-0.5 0.1-0.2 0.2-0.4 0.2-0.6h0c0.1 0.2 0.1 0.4 0.2 0.6 0.1 0.2 0.2 0.4 0.2 0.5 0.3 0.6 0.5 1.2 0.8 1.8 0 0.1 0 0.1 0.1 0.1C0.7 4.4 0.7 4.5 0.8 4.5 0.8 4.5 0.9 4.5 1 4.5 1.1 4.5 1.2 4.5 1.4 4.5 1.6 4.5 1.8 4.5 1.9 4.5 2 4.5 2.1 4.5 2.2 4.4 2.2 4.4 2.2 4.3 2.2 4.3 2.2 4.2 2.1 4.1 2.1 3.9 1.4 2.6 0.7 1.3 0 0" fill="#3a7cbf"/></g><g transform="translate(57.7393,48.7188)"><path d="m0 0c0-0.2 0-0.4-0.1-0.5 0-0.1-0.1-0.1-0.2-0.1-0.8 0-1.6 0-2.4 0-0.1 0-0.2 0-0.2 0.1 0 0.1-0.1 0.2-0.1 0.5 0 0.2 0 0.4 0.1 0.4 0 0.1 0.1 0.1 0.2 0.1C-1.8 0.6-1 0.6-0.2 0.6-0.2 0.6-0.2 0.6-0.1 0.5-0.1 0.5-0.1 0.5-0.1 0.5 0 0.4 0 0.3 0 0.3 0 0.2 0 0.1 0 0" fill="#3a7cbf"/></g><g transform="translate(62.5869,47.0645)"><path d="m0 0c0 0.2 0 0.3-0.1 0.5-0.1 0.1-0.1 0.2-0.2 0.3-0.1 0.1-0.2 0.2-0.4 0.2-0.2 0.1-0.4 0.1-0.7 0.1L-2.3 1.1c0-0.7 0-1.4-0.1-2.1 0.4 0 0.7 0 1.1 0 0.2 0 0.4 0 0.5 0 0.1 0 0.3 0.1 0.4 0.2 0.1 0.1 0.2 0.2 0.3 0.3C0-0.3 0-0.2 0 0m-0.3 3.1c0 0.1 0 0.3-0.1 0.4 0 0.1-0.1 0.2-0.2 0.3-0.1 0.1-0.2 0.1-0.3 0.2-0.1 0-0.3 0.1-0.6 0.1-0.3 0-0.5 0-0.8 0 0-0.6 0-1.3-0.1-1.9 0.3 0 0.6 0 0.8 0 0.2 0 0.4 0 0.5 0.1 0.1 0 0.2 0.1 0.3 0.2 0.1 0.1 0.2 0.2 0.2 0.3 0 0.1 0.1 0.2 0.1 0.4M1.5 0C1.5-0.3 1.5-0.5 1.4-0.7 1.3-0.9 1.2-1.1 1.1-1.2 1-1.4 0.8-1.5 0.6-1.6 0.4-1.8 0.2-1.8 0-1.9c-0.2-0.1-0.4-0.1-0.7-0.1-0.2 0-0.5 0-0.8 0-0.6 0-1.3 0-1.9 0.1-0.1 0-0.2 0-0.3 0.1-0.1 0.1-0.1 0.2-0.1 0.4 0.1 2.1 0.1 4.2 0.2 6.3 0 0.2 0.1 0.3 0.1 0.4 0.1 0.1 0.2 0.1 0.3 0.1C-2.5 5.2-1.9 5.2-1.3 5.2-0.8 5.2-0.5 5.1-0.1 5 0.2 4.9 0.4 4.8 0.6 4.7 0.9 4.5 1 4.3 1.1 4.1 1.2 3.8 1.3 3.5 1.3 3.2 1.2 3.1 1.2 2.9 1.2 2.7 1.1 2.6 1 2.5 0.9 2.3 0.9 2.2 0.7 2.1 0.6 2 0.5 1.9 0.3 1.8 0.2 1.8 0.4 1.7 0.6 1.7 0.7 1.6 0.9 1.5 1.1 1.3 1.2 1.2 1.3 1 1.4 0.9 1.5 0.7 1.5 0.5 1.6 0.2 1.5 0" fill="#3a7cbf"/></g><g transform="translate(68.0547,50.5474)"><path d="M0 0H0C-0.4-1-0.8-2-1.2-3-0.5-3.1 0.2-3.1 0.9-3.1 0.6-2.1 0.3-1 0 0M3-5.5C3.1-5.7 3.1-5.8 3.1-5.8 3.1-5.9 3.1-6 3-6 3-6.1 2.9-6.1 2.8-6.1 2.7-6.1 2.6-6.1 2.4-6.1c-0.2 0-0.3 0-0.4 0-0.1 0-0.2 0-0.2 0.1-0.1 0-0.1 0-0.1 0.1 0 0 0 0.1 0 0.1-0.1 0.5-0.3 1-0.4 1.5-0.9 0.1-1.8 0.1-2.7 0.2-0.2-0.5-0.4-0.9-0.5-1.4 0-0.1 0-0.1-0.1-0.1 0 0-0.1-0.1-0.1-0.1-0.1 0-0.1 0-0.2 0-0.1 0-0.2 0-0.4 0-0.2 0-0.3 0-0.4 0-0.1 0-0.2 0-0.2 0.1 0 0 0 0.1 0 0.2 0 0.1 0 0.2 0.1 0.3 0.8 2.1 1.7 4.2 2.6 6.3 0 0.1 0.1 0.1 0.1 0.1 0 0 0.1 0.1 0.2 0.1 0.1 0 0.2 0 0.3 0 0.1 0 0.3 0 0.5 0C0.3 1.4 0.5 1.4 0.6 1.4 0.8 1.4 0.9 1.3 0.9 1.3 1 1.3 1.1 1.3 1.1 1.2 1.1 1.2 1.2 1.1 1.2 1 1.8-1.1 2.4-3.3 3-5.5" fill="#3a7cbf"/></g><g transform="translate(77.0391,45.1123)"><path d="M0 0C0-0.1 0-0.2 0-0.2 0-0.3-0.1-0.4-0.1-0.4-0.1-0.4-0.1-0.5-0.1-0.5-0.1-0.5-0.2-0.6-0.2-0.6-0.3-0.7-0.4-0.7-0.5-0.8-0.6-0.8-0.7-0.9-0.9-0.9-1.1-1-1.3-1-1.5-1-1.7-1.1-2-1.1-2.2-1c-0.5 0-0.9 0.2-1.3 0.3-0.4 0.2-0.7 0.4-1 0.8-0.3 0.3-0.4 0.7-0.6 1.2-0.1 0.5-0.2 1-0.1 1.6 0 0.6 0.2 1.2 0.4 1.6 0.2 0.5 0.5 0.8 0.8 1.2 0.3 0.3 0.7 0.5 1.1 0.7 0.4 0.1 0.9 0.2 1.4 0.1 0.2 0 0.4 0 0.6-0.1C-0.7 6.3-0.5 6.2-0.4 6.1-0.2 6.1-0.1 6 0 5.9 0.2 5.8 0.2 5.8 0.3 5.7 0.3 5.7 0.4 5.6 0.4 5.6 0.4 5.5 0.4 5.5 0.4 5.4 0.4 5.4 0.4 5.3 0.4 5.3 0.4 5.2 0.4 5.1 0.4 5 0.4 4.9 0.4 4.8 0.4 4.7 0.4 4.6 0.4 4.6 0.3 4.5 0.3 4.5 0.3 4.4 0.2 4.4 0.2 4.4 0.2 4.4 0.2 4.4 0.1 4.4 0 4.4-0.1 4.5-0.1 4.6-0.2 4.7-0.4 4.8-0.5 4.9-0.7 4.9-0.9 5-1 5.1-1.3 5.2-1.5 5.2-1.8 5.2-2.1 5.2-2.3 5.1-2.6 5-2.8 4.8-3 4.6-3.1 4.4-3.3 4.2-3.4 3.8-3.5 3.5-3.6 3.2-3.6 2.8-3.6 2.4-3.6 2-3.5 1.7-3.5 1.4-3.4 1.1-3.2 0.9-3.1 0.7-2.9 0.5-2.7 0.4-2.4 0.3-2.2 0.2-1.9 0.2c0.3 0 0.5 0 0.7 0 0.2 0 0.4 0.1 0.5 0.2 0.1 0.1 0.3 0.1 0.4 0.2 0.1 0.1 0.2 0.1 0.2 0.1C-0.1 0.6-0.1 0.6 0 0.6 0 0.6 0 0.6 0 0.5 0 0.5 0 0.4 0 0.3 0 0.2 0 0.1 0 0" fill="#3a7cbf"/></g><g transform="translate(83.3086,43.6045)"><path d="m0 0c0 0 0-0.1 0-0.1 0 0-0.1-0.1-0.1-0.1-0.1 0-0.1 0-0.2 0-0.1 0-0.2 0-0.4 0-0.2 0-0.4 0.1-0.5 0.1-0.1 0-0.2 0.1-0.2 0.1 0 0-0.1 0.1-0.1 0.1-0.6 1.2-1.2 2.4-1.9 3.6C-3.6 2.7-3.7 1.5-3.8 0.4-3.8 0.4-3.8 0.3-3.9 0.3-3.9 0.3-3.9 0.2-4 0.2-4 0.2-4.1 0.2-4.2 0.2-4.3 0.2-4.4 0.2-4.6 0.2c-0.1 0-0.3 0-0.4 0.1-0.1 0-0.2 0-0.2 0.1-0.1 0-0.1 0.1-0.1 0.1 0 0 0 0.1 0 0.1 0.2 2.3 0.4 4.5 0.6 6.8 0 0 0 0.1 0 0.1 0 0 0.1 0 0.1 0.1 0.1 0 0.1 0 0.2 0 0.1 0 0.2 0 0.4 0 0.2 0 0.3 0 0.4-0.1 0.1 0 0.2 0 0.2-0.1 0.1 0 0.1-0.1 0.1-0.1 0 0 0-0.1 0-0.1L-3.5 4.1c0.8 1 1.6 1.9 2.5 2.8 0 0 0.1 0.1 0.1 0.1 0 0 0.1 0 0.2 0.1 0.1 0 0.1 0 0.2 0C-0.4 7.1-0.3 7.1-0.1 7.1 0 7.1 0.2 7.1 0.3 7.1 0.4 7 0.4 7 0.5 7 0.6 7 0.6 6.9 0.6 6.9 0.6 6.9 0.6 6.8 0.6 6.8 0.6 6.7 0.6 6.7 0.6 6.6 0.5 6.5 0.4 6.4 0.3 6.3-0.4 5.5-1.2 4.7-2 3.9-1.3 2.8-0.7 1.6-0.1 0.4-0.1 0.3 0 0.2 0 0.1 0 0.1 0 0 0 0" fill="#3a7cbf"/></g><g transform="translate(35.2881,35.5596)"><path d="m0 0c0-0.1 0-0.1 0-0.2 0 0 0-0.1 0-0.1 0 0 0-0.1 0-0.1 0 0 0 0-0.1 0 0 0-0.1 0-0.2 0.1-0.1 0-0.2 0.1-0.3 0.1-0.1 0.1-0.3 0.1-0.4 0.1-0.2 0-0.3 0.1-0.6 0.1-0.2 0-0.4 0-0.6-0.1-0.2-0.1-0.3-0.2-0.5-0.3-0.1-0.1-0.2-0.3-0.3-0.5-0.1-0.2-0.1-0.4-0.1-0.7 0-0.3 0-0.5 0.1-0.7 0.1-0.2 0.2-0.4 0.3-0.5 0.1-0.1 0.3-0.2 0.5-0.3 0.2-0.1 0.4-0.1 0.6-0.1 0.1 0 0.2 0 0.3 0 0.1 0 0.2 0.1 0.3 0.1v1.1h-0.9c0 0-0.1 0-0.1 0.1 0 0.1 0 0.1 0 0.3 0 0.1 0 0.1 0 0.2 0 0 0 0.1 0 0.1 0 0 0 0 0 0.1 0 0 0 0 0.1 0h1.6c0 0 0.1 0 0.1 0 0 0 0.1 0 0.1-0.1 0 0 0-0.1 0.1-0.1 0 0 0-0.1 0-0.1v-1.9c0-0.1 0-0.1 0-0.2C-0.1-3.7-0.1-3.7-0.2-3.7-0.3-3.8-0.4-3.8-0.5-3.8-0.6-3.9-0.7-3.9-0.8-3.9-1-4-1.1-4-1.2-4-1.3-4-1.5-4-1.6-4c-0.4 0-0.7 0.1-1 0.2-0.3 0.1-0.5 0.3-0.7 0.5-0.2 0.2-0.4 0.4-0.5 0.7-0.1 0.3-0.2 0.6-0.2 1 0 0.4 0.1 0.7 0.2 1 0.1 0.3 0.3 0.6 0.5 0.8 0.2 0.2 0.5 0.4 0.8 0.5 0.3 0.1 0.6 0.2 1 0.2 0.2 0 0.4 0 0.6 0C-0.8 0.7-0.7 0.7-0.6 0.7-0.4 0.6-0.3 0.6-0.3 0.5-0.2 0.5-0.1 0.4-0.1 0.4-0.1 0.4 0 0.3 0 0.3 0 0.2 0 0.1 0 0" fill="#3a7cbf"/></g><g transform="translate(40.041,33.3643)"><path d="m0 0c0-0.3 0-0.5-0.1-0.8-0.1-0.2-0.2-0.4-0.4-0.6-0.2-0.2-0.4-0.3-0.6-0.4-0.2-0.1-0.5-0.1-0.8-0.1-0.3 0-0.6 0-0.8 0.1-0.2 0.1-0.4 0.2-0.6 0.3-0.2 0.1-0.3 0.3-0.4 0.6-0.1 0.2-0.1 0.5-0.1 0.8v2.8c0 0 0 0 0 0.1 0 0 0 0 0.1 0 0 0 0.1 0 0.1 0 0.1 0 0.1 0 0.2 0 0.1 0 0.2 0 0.2 0 0.1 0 0.1 0 0.1 0 0 0 0.1 0 0.1 0 0 0 0 0 0-0.1V0c0-0.2 0-0.3 0.1-0.5 0-0.1 0.1-0.2 0.2-0.3 0.1-0.1 0.2-0.2 0.3-0.2 0.1 0 0.3-0.1 0.4-0.1 0.1 0 0.3 0 0.4 0.1 0.1 0 0.2 0.1 0.3 0.2 0.1 0.1 0.1 0.2 0.2 0.3 0 0.1 0.1 0.3 0.1 0.4v2.8c0 0 0 0 0 0.1 0 0 0 0 0.1 0 0 0 0.1 0 0.1 0 0.1 0 0.1 0 0.2 0 0.1 0 0.2 0 0.2 0C-0.2 2.9-0.1 2.9-0.1 2.9-0.1 2.9 0 2.9 0 2.9 0 2.8 0 2.8 0 2.8Z" fill="#3a7cbf"/></g><g transform="translate(42.5269,35.3936)"><path d="M0 0H0L-0.7-2H0.7ZM2.1-3.4C2.2-3.5 2.2-3.6 2.2-3.6 2.2-3.7 2.2-3.7 2.2-3.7 2.1-3.8 2.1-3.8 2-3.8 2-3.8 1.9-3.8 1.7-3.8c-0.1 0-0.2 0-0.3 0-0.1 0-0.1 0-0.2 0 0 0-0.1 0-0.1 0 0 0 0 0 0 0.1l-0.3 0.9h-1.7l-0.3-0.9c0 0 0-0.1 0-0.1 0 0 0 0-0.1-0.1 0 0-0.1 0-0.1 0-0.1 0-0.1 0-0.2 0-0.1 0-0.2 0-0.3 0-0.1 0-0.1 0-0.1 0.1 0 0 0 0.1 0 0.1 0 0.1 0 0.1 0.1 0.2L-0.6 0.7c0 0 0 0.1 0.1 0.1 0 0 0.1 0 0.1 0.1 0 0 0.1 0 0.2 0 0.1 0 0.2 0 0.3 0 0.1 0 0.3 0 0.3 0C0.4 0.9 0.5 0.9 0.5 0.9 0.6 0.9 0.6 0.8 0.6 0.8 0.7 0.8 0.7 0.8 0.7 0.7Z" fill="#3a7cbf"/></g><g transform="translate(47.542,34.9092)"><path d="M0 0C0 0.2 0 0.3-0.1 0.4-0.2 0.5-0.3 0.6-0.4 0.6-0.5 0.6-0.5 0.6-0.6 0.6-0.7 0.6-0.8 0.7-0.9 0.7h-0.4v-1.3h0.5c0.1 0 0.3 0 0.4 0 0.1 0 0.2 0.1 0.3 0.1 0.1 0.1 0.1 0.1 0.2 0.2C0-0.2 0-0.1 0 0M1.2-3.2C1.2-3.2 1.2-3.2 1.2-3.2 1.2-3.2 1.2-3.3 1.1-3.3 1.1-3.3 1-3.3 1-3.3 0.9-3.3 0.8-3.3 0.7-3.3c-0.1 0-0.2 0-0.2 0-0.1 0-0.1 0-0.1 0 0 0-0.1 0-0.1 0.1 0 0 0 0 0 0.1l-0.4 1c-0.1 0.1-0.1 0.2-0.1 0.3 0 0.1-0.1 0.2-0.2 0.2-0.1 0.1-0.1 0.1-0.2 0.1-0.1 0-0.2 0-0.3 0h-0.3v-1.8c0 0 0 0 0-0.1 0 0 0 0-0.1 0 0 0-0.1 0-0.1 0-0.1 0-0.1 0-0.2 0-0.1 0-0.2 0-0.2 0-0.1 0-0.1 0-0.1 0 0 0-0.1 0-0.1 0 0 0 0 0 0 0.1v4.2c0 0.1 0 0.2 0.1 0.2 0.1 0 0.1 0.1 0.2 0.1h1.2c0.1 0 0.2 0 0.3 0C-0.4 1.4-0.3 1.4-0.2 1.3 0 1.3 0.1 1.3 0.3 1.2 0.4 1.1 0.6 1.1 0.7 1 0.8 0.9 0.8 0.7 0.9 0.6 1 0.4 1 0.3 1 0.1 1-0.1 1-0.2 0.9-0.3 0.9-0.5 0.8-0.6 0.7-0.7 0.7-0.8 0.6-0.9 0.5-0.9 0.3-1 0.2-1.1 0.1-1.1 0.1-1.1 0.2-1.2 0.3-1.2 0.3-1.3 0.4-1.3 0.4-1.4 0.5-1.5 0.5-1.6 0.6-1.6 0.6-1.7 0.7-1.8 0.7-1.9l0.4-0.9c0-0.1 0.1-0.2 0.1-0.2 0 0 0-0.1 0-0.1" fill="#3a7cbf"/></g><g transform="translate(51.127,35.3936)"><path d="M0 0H0L-0.7-2H0.7ZM2.1-3.4C2.2-3.5 2.2-3.6 2.2-3.6 2.2-3.7 2.2-3.7 2.2-3.7 2.1-3.8 2.1-3.8 2-3.8 2-3.8 1.9-3.8 1.7-3.8c-0.1 0-0.2 0-0.3 0-0.1 0-0.1 0-0.2 0 0 0-0.1 0-0.1 0 0 0 0 0 0 0.1l-0.3 0.9h-1.7l-0.3-0.9c0 0 0-0.1 0-0.1 0 0 0 0-0.1-0.1 0 0-0.1 0-0.1 0-0.1 0-0.1 0-0.2 0-0.1 0-0.2 0-0.3 0-0.1 0-0.1 0-0.1 0.1 0 0 0 0.1 0 0.1 0 0.1 0 0.1 0.1 0.2L-0.6 0.7c0 0 0 0.1 0.1 0.1 0 0 0 0 0.1 0.1 0 0 0.1 0 0.2 0 0.1 0 0.2 0 0.3 0 0.1 0 0.3 0 0.3 0C0.4 0.9 0.5 0.9 0.5 0.9 0.6 0.9 0.6 0.8 0.6 0.8 0.7 0.8 0.7 0.8 0.7 0.7Z" fill="#3a7cbf"/></g><g transform="translate(57.7451,31.9639)"><path d="m0 0c0-0.1 0-0.1 0-0.1 0 0 0-0.1-0.1-0.1 0 0-0.1 0-0.1-0.1 0 0-0.1 0-0.1 0h-0.4c-0.1 0-0.2 0-0.2 0-0.1 0-0.1 0-0.2 0.1-0.1 0-0.1 0.1-0.1 0.2 0 0.1-0.1 0.2-0.2 0.3l-1.2 2.2c-0.1 0.1-0.1 0.3-0.2 0.4-0.1 0.1-0.1 0.3-0.2 0.4h0c0-0.2 0-0.3 0-0.5 0-0.2 0-0.3 0-0.5v-2.4c0 0 0 0 0-0.1 0 0 0 0-0.1 0 0 0-0.1 0-0.1 0-0.1 0-0.1 0-0.2 0-0.1 0-0.2 0-0.2 0-0.1 0-0.1 0-0.1 0 0 0-0.1 0-0.1 0 0 0 0 0 0 0.1v4.2c0 0.1 0 0.2 0.1 0.3 0.1 0.1 0.1 0.1 0.2 0.1h0.5c0.1 0 0.2 0 0.2 0 0.1 0 0.1 0 0.2-0.1 0.1 0 0.1-0.1 0.1-0.2 0-0.1 0.1-0.1 0.1-0.2L-1.4 2.1C-1.4 2-1.3 1.9-1.3 1.8-1.2 1.7-1.2 1.6-1.1 1.5-1.1 1.4-1 1.3-1 1.2-0.9 1.1-0.9 1-0.8 1H-0.8C-0.8 1.1-0.8 1.3-0.8 1.5-0.8 1.7-0.9 1.8-0.9 2v2.2c0 0 0 0 0 0.1 0 0 0 0 0.1 0.1 0 0 0.1 0 0.1 0 0.1 0 0.1 0 0.2 0 0.1 0 0.1 0 0.2 0 0.1 0 0.1 0 0.1 0 0 0 0.1 0 0.1 0C0 4.2 0 4.2 0 4.2Z" fill="#3a7cbf"/></g><g transform="translate(61.8516,35.8936)"><path d="m0 0c0-0.1 0-0.1 0-0.2 0 0 0-0.1 0-0.1 0 0 0-0.1 0-0.1 0 0 0 0-0.1 0h-1.2v-3.7c0 0 0 0 0-0.1 0 0 0 0-0.1 0 0 0-0.1 0-0.1 0-0.1 0-0.1 0-0.2 0-0.1 0-0.2 0-0.2 0-0.1 0-0.1 0-0.1 0 0 0-0.1 0-0.1 0 0 0 0 0 0 0.1v3.7h-1.2c0 0 0 0-0.1 0 0 0 0 0 0 0.1 0 0 0 0.1 0 0.1 0 0 0 0.1 0 0.2 0 0.1 0 0.1 0 0.2 0 0 0 0.1 0 0.1 0 0 0 0.1 0 0.1 0 0 0 0 0.1 0h3.3c0 0 0 0 0.1 0 0 0 0 0 0-0.1 0 0 0-0.1 0-0.1C0 0.1 0 0.1 0 0" fill="#3a7cbf"/></g><g transform="translate(65.1563,32.0029)"><path d="M0 0C0-0.1 0-0.1 0-0.2 0-0.2 0-0.3 0-0.3 0-0.3-0.1-0.3-0.1-0.4-0.1-0.4-0.1-0.4-0.1-0.4h-2.3c-0.1 0-0.1 0-0.2 0.1-0.1 0-0.1 0.1-0.1 0.2V4c0 0.1 0 0.2 0.1 0.2 0.1 0 0.1 0.1 0.2 0.1h2.3c0 0 0 0 0.1 0 0 0 0 0 0-0.1 0 0 0-0.1 0-0.1 0 0 0-0.1 0-0.2 0-0.1 0-0.1 0-0.2C0 3.7 0 3.6-0.1 3.6-0.1 3.6-0.1 3.6-0.1 3.6-0.1 3.5-0.1 3.5-0.2 3.5H-1.8V2.4h1.4c0 0 0 0 0.1 0C-0.3 2.4-0.3 2.4-0.3 2.3-0.3 2.3-0.3 2.3-0.3 2.2-0.3 2.2-0.3 2.1-0.3 2-0.3 2-0.3 1.9-0.3 1.9-0.3 1.8-0.3 1.8-0.3 1.8-0.3 1.7-0.3 1.7-0.3 1.7-0.4 1.7-0.4 1.7-0.4 1.7H-1.8V0.4h1.7c0 0 0 0 0.1 0C-0.1 0.3 0 0.3 0 0.3 0 0.3 0 0.2 0 0.2 0 0.1 0 0.1 0 0" fill="#3a7cbf"/></g><g transform="translate(68.7451,32.0029)"><path d="M0 0C0-0.1 0-0.1 0-0.2 0-0.2 0-0.3 0-0.3 0-0.3-0.1-0.3-0.1-0.4-0.1-0.4-0.1-0.4-0.1-0.4h-2.3c-0.1 0-0.1 0-0.2 0.1-0.1 0-0.1 0.1-0.1 0.2V4c0 0.1 0 0.2 0.1 0.2 0.1 0 0.1 0.1 0.2 0.1h2.3c0 0 0 0 0.1 0 0 0 0 0 0-0.1 0 0 0-0.1 0-0.1 0 0 0-0.1 0-0.2 0-0.1 0-0.1 0-0.2C0 3.7 0 3.6-0.1 3.6-0.1 3.6-0.1 3.6-0.1 3.6-0.1 3.5-0.1 3.5-0.2 3.5H-1.8V2.4h1.4c0 0 0 0 0.1 0 0 0 0 0 0-0.1 0 0 0-0.1 0-0.1 0 0 0-0.1 0-0.2 0-0.1 0-0.1 0-0.2C-0.3 1.8-0.3 1.8-0.3 1.8-0.3 1.7-0.3 1.7-0.4 1.7-0.4 1.7-0.4 1.7-0.4 1.7H-1.8V0.4h1.7c0 0 0 0 0.1 0 0 0 0 0 0-0.1 0 0 0-0.1 0-0.1C0 0.1 0 0.1 0 0" fill="#3a7cbf"/></g></g></g></svg>