<svg xmlns:svg="http://www.w3.org/2000/svg" xmlns="http://www.w3.org/2000/svg" version="1.1" id="svg2" xml:space="preserve" width="666.67" height="666.67" viewBox="0 0 666.67 666.67"><metadata id="metadata8"/><defs id="defs6"><clipPath clipPathUnits="userSpaceOnUse" id="clipPath18"><path d="M0 500H500V0H0Z" id="path16"/></clipPath></defs><g id="g10" transform="matrix(1.3333333,0,0,-1.3333333,0,666.66667)"><g id="g12"><g id="g14" clip-path="url(#clipPath18)"><g id="g20" transform="translate(99.7051,287.7578)"><path d="m0 0c60 19.09 104.83 70.14 159.66 88.42 63.66 21.22 121.77 13.64 163.71-17.68 53.47-39.94 41.25-184.44-100.03-249C136.17-218.09 4.43-195.02-49.52-122.78-77.81-84.88-77.81-24.76 0 0" id="path22" fill="#e6f5ff"/></g><g id="g24" transform="translate(378.3066,297.0078)"><path d="m0 0c0.99-11.15-7.26-20.99-18.41-21.98-11.15-0.98-20.99 7.26-21.98 18.41-0.98 11.15 7.26 20.99 18.41 21.98C-10.82 19.4-0.98 11.15 0 0" id="path26" fill="#2f7dcc"/></g><g id="g28" transform="translate(135.6411,236.2051)"><path d="m0 0c0 0-0.95 17.23-11.45 28.47-10.5 11.25-36.62 7.61-32.18-25.48 0 0-20.82 2.61-22.94-15.91-1.72-14.99 10.56-31.21 27.7-29.32 0 0-20.04-14.32-7.83-36.26 6.55-11.77 21.43-18.65 34.55-7.79 0 0-2.97-33.17 24.5-31.88 26.6 1.24 24.3 35.05 16.81 46.57 0 0 91.15 49.13 94.1 50.16 2.95 1.02-18.88 63.01-18.88 63.01z" id="path30" fill="#d4e4e6"/></g><g id="g32" transform="translate(267.0059,209.0029)"><path d="m0 0c0 0-54.8-29.95-107.61-47.93 0 0 40.01 29.4 66.14 52.25l27.04 16.85z" id="path34" fill="#e2595e"/></g><g id="g36" transform="translate(223.7129,277.0791)"><path d="m0 0c-1.13-0.1-44.98-16.15-90.2-42.58 0 0 55.46 18.21 103.7 19.05z" id="path38" fill="#e2595e"/></g><g id="g40" transform="translate(238.7031,249.4907)"><path d="m0 0c-1.13-0.1-94.13-49.78-108.22-58.25 0 0 68.25 15.54 106.23 29.16z" id="path42" fill="#e2595e"/></g><g id="g44" transform="translate(421.8311,325.3887)"><path d="m0 0c0 0-9.98-37.78-31.23-55.64-21.25-17.85-46.94-28.49-63.28-45.91-16.34-17.42-21.35-42.59-81.93-67.34 0 0 14.69 14.61 16.8 33.82 2.11 19.21-2.75 22.58-21.68 25.86l-15.73 5.84c0 0 7.63 17.03 5.18 27.47-2.44 10.44-12.64 35.41-36.03 37.52-23.39 2.12-28.58 0.52-28.58 0.52 0 0 25.4 18.22 53.51 22.99 28.11 4.76 42.82 1.88 60.63 2.69 17.81 0.81 42.58 12.21 62.52 15.79C-38.26 11.08 0 0 0 0" id="path46" fill="#a5d3f9"/></g><g id="g48" transform="translate(378.3066,297.0078)"><path d="m0 0c0.99-11.15-7.26-20.99-18.41-21.98-11.15-0.98-20.99 7.26-21.98 18.41-0.98 11.15 7.26 20.99 18.41 21.98C-10.82 19.4-0.98 11.15 0 0" id="path50" fill="#28568e"/></g><g id="g52" transform="translate(378.3066,297.0078)"><path d="m0 0c0.99-11.15-7.26-20.99-18.41-21.98-11.15-0.98-20.99 7.26-21.98 18.41-0.98 11.15 7.26 20.99 18.41 21.98C-10.82 19.4-0.98 11.15 0 0" id="path54" fill="#a5d3f9"/></g><g id="g56" transform="translate(378.3066,297.0078)"><path d="m0 0c0.99-11.15-7.26-20.99-18.41-21.98-11.15-0.98-20.99 7.26-21.98 18.41-0.98 11.15 7.26 20.99 18.41 21.98C-10.82 19.4-0.98 11.15 0 0Z" id="path58" style="fill:none;stroke-width:8;stroke:#2f7dcc"/></g><g id="g60" transform="translate(261.7764,204.5889)"><path d="M0 0C1.04-3.44 1.1-8.01 0.41-14.27-1.69-33.48-16.38-48.09-16.38-48.09 44.2-23.34 49.21 1.83 65.55 19.25 72.33 26.48 80.72 32.53 89.73 38.42 54.8 18.28 11.12 3.59 0 0" id="path62" fill="#6eb6db"/></g><g id="g64" transform="translate(279.4893,313.1992)"><path d="m0 0c-17.81-0.81-32.52 2.07-60.63-2.69-28.11-4.76-53.51-22.99-53.51-22.99 0 0 5.18 1.6 28.58-0.52 7.79-0.71 14.11-3.95 19.18-8.35 8.75 4.14 20.39 9.48 31.3 13.95 17.34 7.11 45.76 19.98 55.73 24.52C13.25 1.85 6.2 0.28 0 0" id="path66" fill="#6eb6db"/></g><g id="g68" transform="translate(236.7275,241.708)"><path d="m0 0 72.22 26.54c0 0-20.04-27.26-42.03-40.99C8.2-28.19-45.14-48.88-44.04-48.4-42.94-47.92-13.9-27.86 0 0" id="path70" fill="#6eb6db"/></g></g></g></g></svg>