<svg xmlns:svg="http://www.w3.org/2000/svg" xmlns="http://www.w3.org/2000/svg" version="1.1" xml:space="preserve" width="133.3" height="133.3" viewBox="0 0 133.3 133.3"><style>.s0{fill:none;stroke-width:2;stroke:#3a7cbf;}.s1{fill:none;stroke-linecap:round;stroke-width:2;stroke:#3a7cbf;}.s2{fill:none;stroke-linecap:round;stroke-linejoin:round;stroke-width:2;stroke:#3a7cbf;}</style><defs><clipPath clipPathUnits="userSpaceOnUse"><path d="M0 100H100V0H0Z"/></clipPath></defs><g transform="matrix(1.3333333,0,0,-1.3333333,0,133.33333)"><g clip-path="url(#clipPath18)"><g transform="translate(45.2363,32.8047)"><path d="m0 0-7.8 7.8c-0.7 0.7-0.7 1.8 0 2.5 0.7 0.7 1.8 0.7 2.5 0L2.5 2.5C3.2 1.8 3.2 0.7 2.5 0 1.8-0.7 0.7-0.7 0 0Z" class="s0"/></g><g transform="translate(37.5366,40.5039)"><path d="m0 0-18.8-17.2c-2.2-2-2.3-5.4-0.2-7.5l1.8-1.8c2.1-2.1 5.5-2 7.5 0.2L7.6-7.6Z" class="s0"/></g><g transform="translate(45.6245,37.4795)"><path d="m0 0 22.7 23.5c0.4 0.5 1.2 0.5 1.6 0l0.5-0.5c1.9-1.9 5-1.7 6.7 0.4l5.2 7.7c0.3 0.5 0.3 1.1 0 1.6-0.5 0.6-1.4 0.6-1.9 0.1l-3.2-3.2c-1.1-1.1-3-1.1-4.1 0l-1.4 1.4c-1.2 1.2-1.2 3 0 4.2l3.1 3.1c0.4 0.4 0.5 1.1 0.2 1.6-0.4 0.7-1.2 0.8-1.8 0.4L19.8 34.9C17.8 33.3 17.6 30.2 19.5 28.3l0.5-0.5c0.4-0.4 0.4-1.2 0-1.6L-3.5 3.5" class="s0"/></g><g transform="translate(21.4624,21.2109)"><path d="M0 0 18.1 17.1" class="s1"/></g><g transform="translate(42.9482,34.9648)"><path d="M0 0-17.1-18.1" class="s1"/></g><g transform="translate(57.4111,32.8906)"><path d="m0 0 17.2-18.8c2-2.2 5.4-2.3 7.5-0.2l1.8 1.8c2.1 2.1 2 5.5-0.2 7.5L7.6 7.6Z" class="s0"/></g><g transform="translate(76.666,16.8545)"><path d="M0 0-17.1 18.1" class="s1"/></g><g transform="translate(62.9111,38.3408)"><path d="M0 0 18.1-17.1" class="s1"/></g><g transform="translate(65.1104,40.5898)"><path d="m0 0-7.8-7.8c-0.7-0.7-1.8-0.7-2.5 0-0.7 0.7-0.7 1.8 0 2.5L-2.5 2.5C-1.8 3.2-0.7 3.2 0 2.5 0.7 1.8 0.7 0.7 0 0Z" class="s0"/></g><g transform="translate(51.4131,43.4883)"><path d="M0 0 5.7-5.9" class="s0"/></g><g transform="translate(51.0215,49.8066)"><path d="m0 0-15.6 15.1c-0.3 0.2-0.4 0.6-0.5 0.9l-0.4 2.9c-0.1 0.5-0.3 0.9-0.7 1.1l-7 5.1c-0.6 0.4-1.5 0.4-2-0.2l-1.7-1.7c-0.5-0.5-0.6-1.4-0.2-2l5.1-7c0.3-0.4 0.7-0.6 1.1-0.7l2.9-0.4c0.3 0 0.7-0.2 0.9-0.5L-2.9-2.9" class="s0"/></g><g transform="translate(60.3379,40.7627)"><path d="M0 0-5.9 5.8" class="s0"/></g><g transform="translate(50.186,72.3198)"><path d="M0 0 5.9-3.1 4.8 3.5 9.6 8.1 3 9.1 0 15.1-3 9.1-9.6 8.1-4.8 3.5-5.9-3.1Z" class="s2"/></g><g transform="translate(80.0215,52.0806)"><path d="M0 0 3.4 1.8 2.7-2 5.5-4.6 1.7-5.2 0-8.6l-1.7 3.4-3.8 0.5 2.7 2.7-0.6 3.8z" class="s2"/></g><g transform="translate(23.0161,52.0806)"><path d="M0 0 3.4 1.8 2.7-2 5.5-4.6 1.7-5.2 0-8.6l-1.7 3.4-3.8 0.5 2.7 2.7-0.6 3.8z" class="s2"/></g></g></g></svg>