<svg xmlns:svg="http://www.w3.org/2000/svg" xmlns="http://www.w3.org/2000/svg" version="1.1" id="svg2" xml:space="preserve" width="666.67" height="666.67" viewBox="0 0 666.67 666.67"><metadata id="metadata8"/><defs id="defs6"><clipPath clipPathUnits="userSpaceOnUse" id="clipPath20"><path d="M0 500H500V0H0Z" id="path18"/></clipPath></defs><g id="g10" transform="matrix(1.3333333,0,0,-1.3333333,0,666.66667)"><path d="M486.3 68.1H9.96v341.05h476.34z" id="path12" fill="#fff"/><g id="g14"><g id="g16" clip-path="url(#clipPath20)"><g id="g22" transform="translate(412.6943,85.9717)"><path d="m0 0c23.6 32.03 37.48 71.24 37.48 113.58 0 108.17-90.6 195.85-202.36 195.85-111.76 0-202.36-87.69-202.36-195.85 0-42.34 13.88-81.54 37.48-113.58z" id="path24" fill="#c7eaff"/></g><g id="g26" transform="translate(286.0615,222.8096)"><path d="m0 0 6.21 6.53c0 0 3.07 2.67 7.39 2.52 4.33-0.16 14.31-0.47 14.31-0.47 0 0 10.62 7.47 11.87 5.9 1.26-1.57-5.66-10.69-5.66-10.69 0 0-3.21-3.25-9.04-3.14C20.76 0.71 18.32 0.47 18.32 0.47L11.56-6.29Z" id="path28" fill="#ffbf90"/></g><g id="g30" transform="translate(212.7231,262.7998)"><path d="m0 0c0 0 1.52-17.86 3.2-25.11 1.69-7.25 4.38-8.09 4.38-8.09l-5.22-17.26-32.52 0.51-0.34 12.98c0 0 3.88 2.36 4.72 14.66 0.84 12.3-0.34 25.45-0.34 25.45z" id="path32" fill="#ffbf90"/></g><g id="g34" transform="translate(284.5752,225.6543)"><path d="m0 0c0.64 0 17.21-8.07 17.21-8.07l-27.19-53.75c0 0-5.74-7.86-10.83-9.35-5.51-1.6-9.99-1.17-15.93 4.04-12.11 10.62-24.86 31.02-24.86 31.02l-6.8 46.74 7.65 4.46c0 0 13.39 7.86 22.1-9.77l13.6-39.3z" id="path36" fill="#e2595e"/></g><g id="g38" transform="translate(245.9429,160.2441)"><path d="m0 0-21.28 61.59c0 0 0.1-21.28 0.09-35.06C-17.52 20.99-8.78 8.35 0 0" id="path40" fill="#c6444e"/></g><g id="g42" transform="translate(186.8394,239.2334)"><path d="m0 0c0 0 14.66-11.03 30.59-1.89l7.23 3.83 12.95-100.7-78.61 0.42 22.95 99.64z" id="path44" fill="#e2595e"/></g><g id="g46" transform="translate(298.0928,230.751)"><path d="M0 0C0.24 0.08 11.37 7.48 13.05 6.37 15.57 4.72 8.96-0.86 8.96-0.86Z" id="path48" fill="#ffbf90"/></g><g id="g50" transform="translate(76.3745,133.6631)"><path d="M0 0 122.8-41.21 347.99 11.9 210.75 29.74Z" id="path52" fill="#6eb6db"/></g><g id="g54" transform="translate(287.6553,147.6855)"><path d="m0 0 66.44 0.48-79.67-14.34-74.25 2.87z" id="path56" fill="#28568e"/></g><g id="g58" transform="translate(295.6221,140.6738)"><path d="m0 0c0.96 0.32 62.78 7.33 62.78 7.33 0 0-2.02-5.2-7.12-7.12l-85.62-15.83 10.36 9.24z" id="path60" fill="#28568e"/></g><g id="g62" transform="translate(199.7676,136.377)"><path d="m0 0 3.48-6.2c1.47-2.63 4.28-4.23 7.29-4.16l51.82-1.55c2.03 0.07 6.37 0.72 8.66 3.27l5.38 6.77z" id="path64" fill="#132540"/></g><g id="g66" transform="translate(212.7231,262.7998)"><path d="m0 0-26.12 3.13c0 0 0.29-3.24 0.48-8 5.96-4.72 12.11-7.47 17.87-8.21 3.19-0.41 6.27-0.3 9.06 0.42C0.52-6.13 0 0 0 0" id="path68" fill="#e59766"/></g><g id="g70" transform="translate(223.4424,153.1025)"><path d="M0 0C0.48 0 4.3-1.54 8.92-3.66 14.82-6.37 20.18-8.1 5.9-9.56Z" id="path72" fill="#ffbf90"/></g><g id="g74" transform="translate(206.0488,302.8408)"><path d="m0 0c0 0 7-13.21 11.91-25.21 5.69-13.93-0.21-20.84-9.2-22.58-7.26-1.4-16.82 1.27-26.36 8.63l-11.41 21.55 17.44 15.4z" id="path76" fill="#ffbf90"/></g><g id="g78" transform="translate(208.895,297.29)"><path d="m0 0c-1.69 3.38-2.85 5.55-2.85 5.55l-17.62-2.22-15.51-13.7 7.73-6.41 2.03-3.38c0 0-1.32 4.93-1.98 7.25-0.66 2.31 1.35 2.67 4.06 3.36C-21.6-8.9-5.8-6.66 0 0" id="path80" fill="#e59766"/></g><g id="g82" transform="translate(230.2749,143.6436)"><path d="M0 0C1.66 0.18 4.01 0.42 5.12 0.62L-2.85 6.91Z" id="path84" fill="#e59766"/></g><g id="g86" transform="translate(167.5151,174.4541)"><path d="m0 0 37.92-14.66-2.39-7.81-7.49-2.55-30.75 17.05z" id="path88" fill="#c6444e"/></g><g id="g90" transform="translate(177.2339,275.7407)"><path d="M0 0C0 0 4.13-3.43 5.91-2.72 7.69-2 5.52 2.2 3.37 6.91 1.84 10.25 1.32 11.55 2.68 12.52c2.45 1.75 12.79 3.46 21.11 6.58 6.23 2.34 10.08 4.65 12.36 9.85 3.41 7.75-0.63 13.44-6.38 13.79-3.86 0.24-5.52-4.09-9.88-5.53-3.78-1.25-9.57 1.68-16.46 2.39-8.75 0.9-18.12-2.54-22.01-12.24-2.41-5.99 2.8-12.51 2.8-12.51 0 0-4.93-3.71-4.8-9.82 0.12-6.17 1.81-14 17.14-18.79 9.85-3.08 14.01-6.42 16.17-4.19 2.17 2.23-6.88 6.62-6.88 6.62l-7.82 7.26z" id="path92" fill="#132540"/></g><g id="g94" transform="translate(200.3384,153.5811)"><path d="m0 0c0 0 15.93 2.23 19.28 1.91 3.35-0.32 6.21-2.39 8.45-5.58 2.23-3.19 9.45-11.13 8.39-12.32-1.95-2.21-5.75-3.89-10.83-3.61-11.5 0.63-28.15 5.58-28.15 5.58z" id="path96" fill="#ffbf90"/></g><g id="g98" transform="translate(177.2803,275.6602)"><path d="M0 0C0 0-3.86 3.05-5.39-1.78-6.93-6.64 1.38-16.76 7.02-11.76Z" id="path100" fill="#ffbf90"/></g><g id="g102" transform="translate(186.4761,239.1445)"><path d="m0 0-9.19 2.66c0 0-13.28 4.04-22.2-15.72L-52.74-74.89c0 0-8.07-19.12 15.08-23.37 0 0 49.08-6.59 49.08-5.95 0 0.64 5.95 23.16 5.95 23.16l-36.75 10.62 15.88 35.05z" id="path104" fill="#e2595e"/></g><g id="g106" transform="translate(175.7329,121.1934)"><path d="M0 0C0 0-0.59-2.06-12.77-2.51-23.51-2.91-25.74 0-25.74 0l-1.59 38.35c0 0 1.21 3 14.46 3.21 12.25 0.2 14.46-3.21 14.46-3.21z" id="path108" fill="#2f7dcc"/></g><g id="g110" transform="translate(342.335,266.8716)"><path d="m0 0h-79.6c-7.98 0-14.45 6.47-14.45 14.45v47.37c0 7.98 6.47 14.45 14.45 14.45H0c7.98 0 14.45-6.47 14.45-14.45V14.45C14.45 6.47 7.98 0 0 0" id="path112" fill="#2f7dcc"/></g><g id="g114" transform="translate(282.5566,279.9614)"><path d="M0 0 45.92-29.98 23.58 0.56Z" id="path116" fill="#2f7dcc"/></g><g id="g118" transform="translate(354.0986,148.1631)"><path d="m0 0 6.85-0.08c2.09 0.8 3.74 2.45 4.53 4.55l21.37 56.69c0.92 2.44 0.61 5.64-0.94 7.74l-3.72 3.29z" id="path120" fill="#28568e"/></g><g id="g122" transform="translate(337.6875,233.5146)"><path d="M0 0C0 2.7 2.19 4.89 4.89 4.89 7.59 4.89 9.77 2.7 9.77 0 9.77-2.7 7.59-4.89 4.89-4.89 2.19-4.89 0-2.7 0 0" id="path124" fill="#2f7dcc"/></g><g id="g126" transform="translate(305.1807,211.4814)"><path d="m0 0 77.12 9.02-21.35-72.42-77.6-13.14z" id="path128" fill="#28568e"/></g><g id="g130" transform="translate(362.3311,233.0361)"><path d="m0 0c0-6.01-4.87-10.89-10.89-10.89-6.01 0-10.89 4.88-10.89 10.89 0 6.01 4.88 10.89 10.89 10.89C-4.87 10.89 0 6.01 0 0" id="path132" fill="#132540"/></g><g id="g134" transform="translate(352.7412,210.5498)"><path d="m0 0-4.2-0.67c-1.48-0.24-2.76 1.04-2.54 2.52l2.06 13.47H0.59L2.38 3.24C2.61 1.69 1.55 0.25 0 0" id="path136" fill="#132540"/></g><g id="g138" transform="translate(361.9062,149.916)"><path d="M0 0C15.14-2.39 24.22 7.69 24.06 12.75 23.9 17.69 19.28 21.51 6.69 15.46-5.9 9.4-18.48 9.24-23.9 20.08c-5.42 10.84 0 24.22 6.53 32.35 6.53 8.13 6.37 10.2 6.53 10.68" id="path140" style="fill:none;stroke-linecap:round;stroke-linejoin:round;stroke:#132540"/></g><g id="g142" transform="translate(198.3027,86.6094)"><path d="M0 0H37.34L226.06 45.65V58.95L0 15.2Z" id="path144" fill="#2f7dcc"/></g><g id="g146" transform="translate(198.3027,86.6094)"><path d="M0 0V15.2L-121.93 46.34V28.83L-29.09 0Z" id="path148" fill="#28568e"/></g><g id="g150" transform="translate(276.0234,134.3008)"><path d="m0 0 6.25-0.08c3.35 0.32 5.04 2.61 5.88 4.84l22.78 60.41c0.98 2.6 0.57 5.51-1.08 7.74l-4.67 4.26z" id="path152" fill="#132540"/></g><g id="g154" transform="translate(283.3271,135.0557)"><path d="M0 0 70.72 12.2" id="path156" style="fill:none;stroke-linecap:round;stroke-linejoin:round;stroke-width:2;stroke:#132540"/></g><g id="g158" transform="translate(152.3149,149.3018)"><path d="m0 0c0 0-7.76 2.79-12.54-1.59-4.78-4.38-1.99-17.32 11.94-18.11l-1.19 5.77c0 0-8.27 0.72-6.66 6.99 1.3 5.06 7.35 1.79 7.35 1.79z" id="path160" fill="#2f7dcc"/></g><g id="g162" transform="translate(175.5151,158.7441)"><path d="m0 0c0-1.55-5.73-2.81-12.8-2.81-7.07 0-12.8 1.26-12.8 2.81 0 1.55 5.73 2.81 12.8 2.81C-5.73 2.81 0 1.55 0 0" id="path164" fill="#132540"/></g><g id="g166" transform="translate(180.2622,198.832)"><path d="m0 0-6.69-30.43-6.37 1.17z" id="path168" fill="#c6444e"/></g><path d="m337.37 323.27h-76.8v6.69h76.8z" id="path170" fill="#a5d3f9"/><path d="m315.54 307.54h-54.81v6.69h54.81z" id="path172" fill="#a5d3f9"/><path d="m327.81 291.41h-67.24v6.69h67.24z" id="path174" fill="#a5d3f9"/></g></g></g></svg>