<svg xmlns:svg="http://www.w3.org/2000/svg" xmlns="http://www.w3.org/2000/svg" version="1.1" id="svg2" xml:space="preserve" width="666.67" height="666.67" viewBox="0 0 666.67 666.67"><metadata id="metadata8"/><defs id="defs6"><clipPath clipPathUnits="userSpaceOnUse" id="clipPath20"><path d="M0 500H500V0H0Z" id="path18"/></clipPath></defs><g id="g10" transform="matrix(1.3333333,0,0,-1.3333333,0,666.66667)"><path d="M485.71 70.59H9.37v341.05h476.34z" id="path12" fill="#fff"/><g id="g14"><g id="g16" clip-path="url(#clipPath20)"><g id="g22" transform="translate(408.0557,87.2734)"><path d="m0 0c22.09 32.17 35.09 71.53 35.09 114.05 0 108.62-84.82 196.67-189.44 196.67-104.62 0-189.44-88.05-189.44-196.67 0-42.52 13-81.88 35.09-114.05z" id="path24" fill="#c7eaff"/></g><g id="g26" transform="translate(206.3467,294.314)"><path d="m0 0c0 0-0.14 0.37-0.4 0.97-1.08 2.54-4.18 9.26-7.28 10.55-3.84 1.6-9.1-0.6-15.52-0.16-9.28 0.64-10.56 2.4-12.32 0.8-3.18-2.89 9.12-6.08 14.24-7.68 5.12-1.6 12-6.88 14.24-11.04z" id="path28" fill="#8e4d4d"/></g><g id="g30" transform="translate(84.2666,186.3135)"><path d="M0 0V-18.4L7.84-23.04 7.04-3.36Z" id="path32" fill="#28568e"/></g><g id="g34" transform="translate(345.2275,114.5977)"><path d="M0 0-16.64 17.16-53.76 5.32c-1.92-0.59-31.36-5.92-33.28-21.3-0.44-3.55-0.1-7.45 0.69-11.35h63.04z" id="path36" fill="#6eb6db"/></g><g id="g38" transform="translate(257.7607,331.8608)"><path d="m0 0c0 0 1.71-16.43-0.85-28.16l13.87-6.19 14.29 11.73c0 0-4.91 4.91-7.47 20.48z" id="path40" fill="#8e4d4d"/></g><g id="g42" transform="translate(258.1865,316.0742)"><path d="m0 0-6.56-0.16-3.2-66.88c0 0 51.52-11.04 51.68-11.36C42.08-78.72 30.08 1.36 30.08 1.36L22.4 1.76C22.4 1.76 13.6-8.96 0 0" id="path44" fill="#ffd68e"/></g><g id="g46" transform="translate(289.2266,295.4341)"><path d="M0 0-1.49-30.45-16.48-48.16c0 0 12.22-7.63 12.8-7.2 4.91 3.63 3.04 1.81 12 9.92 9.71 8.79 8.32 16.91 8.32 16.91L10.67 8.16C6.4 22.03 0.64 12.48 0.64 12.48Z" id="path48" fill="#f4c253"/></g><g id="g50" transform="translate(377.7959,158.7354)"><path d="m0 0c-1.76-39.61-68.89-68.81-149.94-65.22-81.05 3.59-145.33 38.62-143.58 78.23 1.76 39.61 68.89 68.81 149.94 65.22C-62.53 74.63 1.76 39.61 0 0" id="path52" fill="#28568e"/></g><g id="g54" transform="translate(379.332,172.4512)"><path d="m0 0c-2.12-40.44-69.85-69.76-151.28-65.5-81.43 4.27-145.72 40.51-143.6 80.94 2.12 40.44 69.85 69.76 151.28 65.5C-62.18 76.68 2.12 40.44 0 0" id="path56" fill="#28568e"/></g><g id="g58" transform="translate(377.333,172.5557)"><path d="m0 0c-2.07-39.59-68.87-68.28-149.2-64.07-80.32 4.21-143.76 39.72-141.69 79.31 2.07 39.6 68.87 68.28 149.2 64.08C-61.36 75.1 2.07 39.6 0 0" id="path60" fill="#a5d3f9"/></g><g id="g62" transform="translate(279.1807,322.2827)"><path d="m0 0c-0.57 2.16-1.12 4.62-1.58 7.45l-19.84 2.13c0 0 0.31-3.01 0.47-7.38 3.54-2.35 7.12-3.76 10.52-4.2C-6.68-2.48-2.91-1.88 0 0" id="path64" fill="#663939"/></g><g id="g66" transform="translate(251.5566,337.4258)"><path d="m0 0c-2.25-1.44-5.36-0.74-5.36-0.74 0 0 2.82-3.71 0.6-7-2.07-3.07-6.83-2.56-8.88-0.49 0 0-1.32-5.43-6.45-5.29-4.08 0.11-6.09 2.61-5.87 6.76 0 0-4.69-2.59-7.52 0.55-2.28 2.53-2.17 6.01 0.18 7.91 0 0-4 0.02-4.98 4.07-1.22 5.06 3.08 6.96 3.08 6.96 0 0-5.14-0.37-6.12 5.34-0.92 5.37 4.1 7.09 4.1 7.09 0 0-4.05 4.77-0.83 9.59 3.8 5.69 10.34 3.4 10.34 3.4 0 0-3.69 7.42 1.94 12.7 6.42 6.01 13.27 1.91 13.27 1.91 0 0-2.21 8.16 6.79 12.77 8.02 4.12 16.15 1.27 17.98-6.43 0 0 2.11 2.97 5.76 1.34 2.65-1.18 2.15-4.47 2.15-4.47 0 0 4.96 4.87 10.63 2 5.68-2.88 3.65-10.21 3.65-10.21 0 0 5.55 1.88 9.07-2.02 3.52-3.91 0.46-9.69 0.46-9.69 0 0 3.12-0.38 3.54-3.06 0.42-2.68-1.63-3.88-1.63-3.88 0 0 5.09 0.19 5.41-4.85 0.31-4.82-2.57-7.88-6.79-8.47 0 0 1.3-2.71-0.26-4.7-1.92-2.44-5.46-2.29-7.2-0.37 0 0 0.2-2.67-2.07-4.23C32.21 4.54 29.72 6.1 29.72 6.1L24.21 16.7 1.69 7.54C1.69 7.54 3.9 2.49 0 0" id="path68" fill="#132540"/></g><g id="g70" transform="translate(274.583,362.8896)"><path d="m0 0c0 0 3.88-5.81 7.51-20.68 3.63-14.86-5.71-20.23-14.95-19.05-7.46 0.96-15.84 6.58-22.71 16.73l13.57 31.52z" id="path72" fill="#8e4d4d"/></g><g id="g74" transform="translate(261.1201,374.4009)"><path d="m0 0c0 0 4.14-10.59-7.02-10.82 0 0 2.91-3.35 1.18-6.61-2.33-4.41-6.59-3.26-6.59-3.26 0 0 3.43-5.63 0.68-11.03-1.66-3.26-3.63-4.19-6.28-4.62 0 0-7.74 28.63-7.86 28.98C-26.01-7.02-4.72 5.18-4.72 5.18Z" id="path76" fill="#132540"/></g><g id="g78" transform="translate(292.1074,208.7676)"><path d="M0 0C0 0-8.53 0.21-11.09 1.71-13.65 3.2-20.48 5.12-24.11 4.27-27.73 3.41-35.2-4.91-35.2-4.91l7.04-5.76h24.75z" id="path80" fill="#db8b7a"/></g><g id="g82" transform="translate(261.9062,371.5386)"><path d="m0 0c0 0-0.1-9.11 8.77-6.83-0.91-3.59 3.59-9.59 8.9-5.6l1.71 10.24z" id="path84" fill="#132540"/></g><g id="g86" transform="translate(343.3076,247.2744)"><path d="m0 0c0-0.96-0.32-22.88-0.16-24.16 0.16-1.28 23.68-0.96 23.68-0.96l4.48 12-6.72 24.8z" id="path88" fill="#db8b7a"/></g><g id="g90" transform="translate(345.707,225.9941)"><path d="m0 0c0.48 0.16 17.12 1.12 24.64 12.96 0 0 10.88 5.44 14.56-8l10.08-56c0 0-43.36-49.28-43.36-49.76 0-0.48-24.64-3.04-24.64-3.04l4.48 65.12 7.36 39.2z" id="path92" fill="#e2595e"/></g><g id="g94" transform="translate(327.4668,216.0742)"><path d="m0 0-5.6-23.2-28.4 0.08c0 0-9.52-0.4-9.2 5.36l1.68 10.88c0 0 2.8 4.88 8.88 5.04z" id="path96" fill="#e2595e"/></g><g id="g98" transform="translate(375.3076,181.6738)"><path d="m0 0c-16.64-14.4-64.32-68.16-74.24-86.72-1.55-2.9-2.82-5.44-3.82-7.68H5.52c7.73 5.22 14.77 11.8 17.2 17.6 4.16 9.92 10.46 51.53 10.56 52.48C39.04 29.44 16.64 14.4 0 0" id="path100" fill="#2f7dcc"/></g><g id="g102" transform="translate(217.3149,139.3467)"><path d="M0 0C0 0-3.63-3.06-10.38-3.06-17.31-3.06-20.76 0-20.76 0l-1.87 32.59c0 0-0.17 5.73 12.71 5.82 12 0.08 11.8-5.82 11.8-5.82z" id="path104" fill="#2f7dcc"/></g><g id="g106" transform="translate(218.187,171.9355)"><path d="m0 0c0-2.55-4.96-4.62-11.08-4.62-6.12 0-11.08 2.07-11.08 4.62 0 2.55 4.96 4.62 11.08 4.62C-4.96 4.62 0 2.55 0 0" id="path108" fill="#132540"/></g><g id="g110" transform="translate(271.4668,282.5806)"><path d="m0 0c0-7.51-6.09-13.6-13.6-13.6-7.51 0-13.6 6.09-13.6 13.6 0 7.51 6.09 13.6 13.6 13.6C-6.09 13.6 0 7.51 0 0" id="path112" fill="#ffd68e"/></g><g id="g114" transform="translate(276.7471,241.0869)"><path d="m0 0c-1.49-0.85-17.48-4.28-15.89-6.67 0.48-0.72 4.59-1.44 4.59-1.44 0 0-12.64-6.32-11.15-8.88 1.49-2.56 7.2-3.12 14.77-2.21 5.82 0.7 15.79 10.88 15.79 10.88z" id="path116" fill="#8e4d4d"/></g><g id="g118" transform="translate(251.9473,315.7544)"><path d="M0 0C0 0-11.84-0.32-16.48-13.28L-27.04-40.16-44.16-18.24-59.2-29.28-35.2-61.92c0 0 12.16-13.92 21.28 4.32l13.12 26.56z" id="path120" fill="#ffd68e"/></g><g id="g122" transform="translate(285.9473,317.6743)"><path d="M0 0 6.37-52.16-12.4-76.48c0 0 10.3-11.09 10.88-10.67 4.91 3.63 7.89 6.19 16.85 14.29 9.71 8.79 9.17 22.61 9.17 22.61l-5.97 36.69C14.27 0.32 1.44-0.08 1.44-0.08Z" id="path124" fill="#ffd68e"/></g><g id="g126" transform="translate(276.7891,197.6475)"><path d="m0 0c0.39 0.88 0.6 1.81 0.6 2.77 0 5.3-6.26 9.6-13.97 9.6-7.72 0-13.97-4.3-13.97-9.6 0-0.96 0.21-1.89 0.6-2.77z" id="path128" fill="#132540"/></g><g id="g130" transform="translate(249.8667,199.3809)"><path d="m0 0c0 0-16.39-1.65-16.85 5.76-0.21 3.41 1.82 4.7 6.61 7.89 16 10.67 23.04 29.01-31.57 16" id="path132" style="fill:none;stroke-linecap:round;stroke-linejoin:round;stroke:#132540"/></g><g id="g134" transform="translate(276.1074,209.6201)"><path d="m0 0c-3.63-0.85-13.04-5.39-12.16-8.32 0.64-2.13 15.36 0.64 15.36 0.64z" id="path136" fill="#db8b7a"/></g><g id="g138" transform="translate(193.3149,301.2998)"><path d="M0 0C0 0-9.71 6.06-8.74 8.16-7.77 10.25 6.95 2.75 6.95 2.75Z" id="path140" fill="#8e4d4d"/></g><g id="g142" transform="translate(331.75,290.9863)"><path d="m0 0c0 0-4.73-19.92-6.7-29.98-1.97-10.06 3.35-22.88 21.1-17.75l9.47 6.51 0.59 22.48L4.34 0.99Z" id="path144" fill="#db8b7a"/></g><g id="g146" transform="translate(371.0469,288.3237)"><path d="m0 0c0 0 4.16 5.68-15.37 17.51-12.73 7.72-24.51 3.88-20.27-8.11 0 0-6.4 1.66-7.47-4.27-1.49-8.32 9.58-16.12 14.55-19.78 4.74-3.49 1.58-7.32 1.03-8.87-2.07-5.92-4.09-10.3 0.44-6.75 4.54 3.55 10.57 1.56 9.78-2.78-0.79-4.34-7.89-5.97-0.12-13 3.75-3.39 14.91 0.51 15.91 6.6 1.49 9.17 5.2 10.56 9.73 19.04C12.77-11.93 12.03 2.37 0 0" id="path148" fill="#132540"/></g><g id="g150" transform="translate(386.4912,99.46)"><path d="m0 0-7.6-0.82 2.24-11.37h7.76z" id="path152" fill="#2f7dcc"/></g><g id="g154" transform="translate(265.2266,161.834)"><path d="m0 0c0 0-5.53 0.76-8.96 1.76-3.54 1.04-9.15 1.19-10.56 0.32-2.77-1.71-14.61-10.13-15.68-12.48-1.07-2.35-0.64-4.53 5.55-5.39 6.19-0.85 24.96 1.92 24.96 1.92z" id="path156" fill="#db8b7a"/></g><g id="g158" transform="translate(198.0503,163.2305)"><path d="m0 0c0 0-6.93 2.49-11.19-1.42-4.26-3.91-1.78-15.46 10.66-16.17l-1.07 5.15c0 0-7.38 0.64-5.94 6.24 1.16 4.51 6.56 1.6 6.56 1.6z" id="path160" fill="#2f7dcc"/></g><g id="g162" transform="translate(169.2266,176.5537)"><path d="M0 0-5.44-2.56C-8.48-4-11.32-4.29-14.01-3.11L-65.89 20.35c-1.8 0.82-3.16 2.38-3.71 4.29l-1.87 5.87 62.08-14.29z" id="path164" fill="#132540"/></g><g id="g166" transform="translate(97.7598,207.7002)"><path d="m0 0-5.88 1.68c-2 0.81-3.56 2.44-4.28 4.47l-18.69 53.43c-0.84 2.37-0.64 4.59 0.64 7.63l2.72 5.44 24.64-38.72z" id="path168" fill="#132540"/></g><g id="g170" transform="translate(101.4727,208.5557)"><path d="m0 0 75.75 30.5c0.35 0.14 0.74 0.16 1.1 0.05l59.84-17.95c1.38-0.41 1.61-2.27 0.38-3.01L68.48-31.56c-0.46-0.28-1.02-0.31-1.5-0.1L-2.81-1.92C-4.17-1.34-1.37-0.55 0 0" id="path172" fill="#28568e"/></g><g id="g174" transform="translate(177.3911,240.4971)"><path d="m0 0-17.94 59.48c-0.38 1.25-1.66 1.99-2.94 1.69l-82.73-19.73c-1.43-0.34-2.25-1.85-1.75-3.24l25.09-69.85c0.38-1.05 1.42-1.72 2.54-1.62l55.91 4.86c0.68 0.06 1.31 0.4 1.73 0.94L-0.42-2.23C0.08-1.6 0.23-0.77 0 0" id="path176" fill="#28568e"/></g><g id="g178" transform="translate(81.5464,275.7539)"><path d="M0 0 20.81-59.63 88.8-34.09 72.66 20.11Z" id="path180" fill="#a5d3f9"/></g><g id="g182" transform="translate(117.1733,271.9141)"><path d="m0 0 9.04-26.93 31.57 10.24-8.19 26.08z" id="path184" fill="#fff"/></g><g id="g186" transform="translate(87.3066,271.6089)"><path d="M0 0 4.81-14.2 22.6-8.7 17.92 5.35Z" id="path188" fill="#fff"/></g><g id="g190" transform="translate(93.4932,253.0488)"><path d="M0 0 4.81-14.2 22.77-8.18 18.25 5.88Z" id="path192" fill="#fff"/></g><g id="g194" transform="translate(99.8931,234.7021)"><path d="M0 0 4.61-13.03 21.68-6.53 17.57 6.09Z" id="path196" fill="#fff"/></g><g id="g198" transform="translate(310.6484,192.9053)"><path d="m0 0 10.33-0.03 4.6 15.4 1.88 7.8-7.12-0.4C6.13 16.89 1.46 4.12 0 0" id="path200" fill="#c6444e"/></g><g id="g202" transform="translate(335.9473,147.1143)"><path d="M0 0C0 0 8.48 36 8.8 36.48L9.2 72.11C6.43 73.03 3.95 73.35 1.73 73.25L-4.48 38.72-7.84-10.06C-2.4-7.36 0 0 0 0" id="path204" fill="#c6444e"/></g><g id="g206" transform="translate(173.0669,237.3535)"><path d="M0 0-74.24-29.92" id="path208" style="fill:none;stroke-linecap:round;stroke-linejoin:round;stroke-width:2;stroke:#132540"/></g><g id="g210" transform="translate(345.5469,187.4336)"><path d="m0 0c-0.32-0.48-11.84-34.56-11.84-34.56 0 0-3.68-10.88-16.96-12.8-13.28-1.92-54.72-1.12-54.72-1.12 0 0-4.96 0.32-5.6 6.56-0.64 6.24 3.68 17.12 3.68 17.12 0 0 2.24 5.28 10.4 5.76 8.16 0.48 40.48 5.12 40.48 5.12l11.04 41.12c0 0 6 16.88 23.12 11.2z" id="path212" fill="#e2595e"/></g><g id="g214" transform="translate(248.7471,272.5542)"><path d="m0 0c0 0 5.76-2.4 13.44-0.8 0 0-1.28-4.8-13.44-5.12z" id="path216" fill="#f4c253"/></g><g id="g218" transform="translate(276.7471,271.2739)"><path d="M0 0C0 0 6.08-2.24 12.48 1.44L12.32-4.64C12.32-4.64 7.36-5.76 0 0" id="path220" fill="#f4c253"/></g><g id="g222" transform="translate(246.3467,275.4341)"><path d="m0 0c0 0-1.44 8.16 4.64 17.28 0 0-5.28-4.96-7.2-13.44-1.92-8.48-1.12-11.2-1.12-11.2z" id="path224" fill="#f4c253"/></g></g></g></g></svg>